<?xml version="1.0"?>
<svg width="512" height="512" xmlns="http://www.w3.org/2000/svg">
    <title>Artboard 108</title>
    <defs>
        <symbol height="24" id="svg_22" viewBox="0 0 24 24" width="24" xmlns="http://www.w3.org/2000/svg">
            <polygon id="svg_12" points="16 0 8 0 8 8 0 8 0 16 8 16 8 24 16 24 16 16 24 16 24 8 16 8 16 0"/>
        </symbol>
    </defs>
    <g class="layer">
        <title>Layer 1</title>
        <g id="svg_13">
            <path d="m490.67,213.33l0,85.34a128,128 0 0 1 -128,128l-21.34,0l0,-213.34l149.34,0z" fill="#7cd5e5"
                  id="svg_1"/>
            <path d="m21.33,213.33l0,85.34a128,128 0 0 0 128,128l21.34,0l0,-213.34l-149.34,0z" fill="#7cd5e5"
                  id="svg_2"/>
            <path d="m405.33,405.33l-42.66,0l0,-42.66a128.14,128.14 0 0 1 128,-128l0,42.66a85.42,85.42 0 0 0 -85.34,85.34l0,42.66z"
                  fill="#5bcade" id="svg_3"/>
            <path d="m149.33,405.33l-42.66,0l0,-42.66a85.42,85.42 0 0 0 -85.34,-85.34l0,-42.66a128.14,128.14 0 0 1 128,128l0,42.66z"
                  fill="#5bcade" id="svg_4"/>
            <path d="m469.33,85.33c-21.33,0 -21.33,-21.33 -42.66,-21.33s-21.34,21.33 -42.67,21.33s-21.33,-21.33 -42.67,-21.33s-21.33,21.33 -42.66,21.33s-21.34,-21.33 -42.67,-21.33s-21.33,21.33 -42.67,21.33s-21.33,-21.33 -42.66,-21.33s-21.34,21.33 -42.67,21.33s-21.33,-21.33 -42.67,-21.33s-21.33,21.33 -42.66,21.33l-21.34,0l0,149.34a128,128 0 0 1 128,128l0,64l213.34,0l0,-64a128,128 0 0 1 128,-128l0,-149.34l-21.34,0z"
                  fill="#e3f6f9" id="svg_5"/>
            <rect fill="#f3fbfd" height="21.33" id="svg_6" width="170.67" x="170.67" y="320"/>
            <path d="m432.92,89.74c6.31,6.33 16.87,16.93 36.41,16.93l0,108.18c-72.54,10.47 -128,73.57 -128,147.82l0,42.66l-170.66,0l0,21.34l192,0l0,-64a128,128 0 0 1 128,-128l0,-149.34l-21.34,0c-21.33,0 -21.33,-21.33 -42.66,-21.33l0,21.33c1.66,0 1.83,0 6.25,4.41z"
                  fill="#b4e7f0" id="svg_7"/>
            <path d="m384,106.67c-19.54,0 -30.1,-10.6 -36.42,-16.93c-4.41,-4.41 -4.58,-4.41 -6.25,-4.41l0,-21.33c10.67,0 15.86,5.18 21.34,10.67c5.23,5.25 10.64,10.66 21.33,10.66l0,21.34z"
                  fill="#b4e7f0" id="svg_8"/>
            <path d="m298.67,106.67c-19.54,0 -30.11,-10.6 -36.42,-16.93c-4.42,-4.41 -4.58,-4.41 -6.25,-4.41l0,-21.33c10.67,0 15.85,5.18 21.33,10.67c5.23,5.25 10.65,10.66 21.34,10.66l0,21.34z"
                  fill="#b4e7f0" id="svg_9"/>
            <path d="m213.33,106.67c-19.54,0 -30.1,-10.6 -36.41,-16.93c-4.42,-4.41 -4.59,-4.41 -6.25,-4.41l0,-21.33c10.66,0 15.85,5.18 21.33,10.67c5.23,5.25 10.65,10.66 21.33,10.66l0,21.34z"
                  fill="#b4e7f0" id="svg_10"/>
            <path d="m128,106.67c-19.54,0 -30.1,-10.6 -36.42,-16.93c-4.41,-4.41 -4.58,-4.41 -6.25,-4.41l0,-21.33c10.67,0 15.86,5.18 21.34,10.67c5.23,5.25 10.64,10.66 21.33,10.66l0,21.34z"
                  fill="#b4e7f0" id="svg_11"/>
            <rect fill="#b4e7f0" height="64" id="svg_15" width="21.33" x="234.67" y="362.67"/>
            <rect fill="#f3fbfd" height="42.67" id="svg_16" width="21.33" x="256" y="362.67"/>
            <rect fill="#b4e7f0" height="21.33" id="svg_17" width="170.67" x="170.67" y="341.33"/>
            <rect fill="#f3fbfd" height="85.33" id="svg_18" width="42.67" x="42.67" y="128"/>
            <use fill="#f291b1" href="#svg_22" id="svg_23"
                 transform="translate(70 74.4) matrix(7.11111 0 0 7.11111 95.0667 61.2)"/>
        </g>
    </g>
</svg>