<?xml version="1.0"?>
<svg width="512" height="512" xmlns="http://www.w3.org/2000/svg" xmlns:svg="http://www.w3.org/2000/svg">
 <title>Artboard 122</title>
 <g class="layer">
  <title>Layer 1</title>
  <g data-name="Baby Girl Face" id="Baby_Girl_Face" transform="matrix(1 0 0 1 0 0)">
   <circle cx="64" cy="298.67" fill="#fad47f" id="svg_1" r="42.67"/>
   <circle cx="448" cy="298.67" fill="#f9c450" id="svg_2" r="42.67"/>
   <circle cx="256" cy="426.67" fill="#fde7b8" id="svg_3" r="64"/>
   <path d="m448,234.67c0,-106.04 -85.96,-192 -192,-192s-192,85.96 -192,192a191.38,191.38 0 0 0 10.29,61.63a106.11,106.11 0 0 0 96.38,151.7l170.66,0a106.11,106.11 0 0 0 96.38,-151.7a191.38,191.38 0 0 0 10.29,-61.63z" fill="#fde7b8" id="svg_4"/>
   <rect fill="#fad47f" height="85.33" id="svg_6" width="42.67" x="170.67" y="362.67"/>
   <rect fill="#fad47f" height="85.33" id="svg_7" width="42.67" x="298.67" y="362.67"/>
   <rect fill="#f9c450" height="42.67" id="svg_8" width="42.67" x="298.67" y="362.67"/>
   <circle cx="192" cy="256" fill="#38395e" id="svg_11" r="21.33"/>
   <circle cx="320" cy="256" fill="#38395e" id="svg_12" r="21.33"/>
   <path d="m256,426.67a64.07,64.07 0 0 1 -64,-64l21.33,0a42.67,42.67 0 0 0 85.34,0l21.33,0a64.07,64.07 0 0 1 -64,64z" fill="#ad1643" id="svg_13"/>
   <rect fill="#fad47f" height="21.33" id="svg_14" width="42.67" x="234.67" y="320"/>
   <path d="m328.76,135.54a103.69,128.78 0 0 0 -146.5,0l-31.47,-39.06a148.23,184.1 0 0 1 209.42,0l-31.45,39.06z" fill="#38395e" id="svg_17"/>
   <path d="m327.76,162.92a103.69,128.78 0 0 0 -146.5,0l-31.47,-39.06a148.23,184.1 0 0 1 209.42,0l-31.45,39.06z" fill="#38395e" id="svg_27"/>
   <path d="m291.76,141.92a103.69,128.78 0 0 0 -146.5,0l-31.47,-39.06a148.23,184.1 0 0 1 209.42,0l-31.45,39.06z" fill="#38395e" id="svg_28"/>
   <path d="m365.76,139.92a103.69,128.78 0 0 0 -146.5,0l-31.47,-39.06a148.23,184.1 0 0 1 209.42,0l-31.45,39.06z" fill="#38395e" id="svg_29"/>
  </g>
 </g>
</svg>