<svg xmlns="http://www.w3.org/2000/svg" viewBox="0 0 512 512">
    <title>Artboard 108</title>
    <g id="Nappy">
        <path d="M490.66667,213.33333v85.33346A127.99988,127.99988,0,0,1,362.66679,426.66667H341.33333V213.33333Z"
              style="fill:#7cd5e5"/>
        <path d="M21.33333,213.33333v85.33346A127.99988,127.99988,0,0,0,149.33321,426.66667h21.33346V213.33333Z"
              style="fill:#7cd5e5"/>
        <path d="M405.33333,405.33333H362.66667V362.66667a128.14,128.14,0,0,1,128-128v42.66666a85.42442,85.42442,0,0,0-85.33334,85.33334Z"
              style="fill:#5bcade"/>
        <path d="M149.33333,405.33333H106.66667V362.66667a85.42442,85.42442,0,0,0-85.33334-85.33334V234.66667a128.14,128.14,0,0,1,128,128Z"
              style="fill:#5bcade"/>
        <path d="M469.33333,85.33333C448,85.33333,448,64,426.66667,64S405.33333,85.33333,384,85.33333,362.66667,64,341.33333,64,320,85.33333,298.66667,85.33333,277.33333,64,256,64s-21.33333,21.33333-42.66667,21.33333S192,64,170.66667,64,149.33333,85.33333,128,85.33333,106.66667,64,85.33333,64,64,85.33333,42.66667,85.33333H21.33333V234.66667a127.99966,127.99966,0,0,1,128,128v64H362.66667v-64a127.99966,127.99966,0,0,1,128-128V85.33333Z"
              style="fill:#e3f6f9"/>
        <rect x="170.66667" y="320" width="170.66667" height="21.33333" style="fill:#f3fbfd"/>
        <path d="M432.9165,89.73956c6.3125,6.33338,16.875,16.92713,36.417,16.92713V214.85413c-72.542,10.46875-128,73.5625-128,147.8125v42.66668H170.6665v21.33332h192v-64a127.99989,127.99989,0,0,1,128-128V85.33331h-21.333C448,85.33331,448,64,426.6665,64V85.33331C428.3335,85.33331,428.5,85.33331,432.9165,89.73956Z"
              style="fill:#b4e7f0"/>
        <path d="M384,106.66667c-19.54167,0-30.10417-10.59375-36.41667-16.92709-4.41666-4.40625-4.58333-4.40625-6.25-4.40625V64C352,64,357.1875,69.17708,362.66667,74.66667c5.22916,5.25,10.64583,10.66666,21.33333,10.66666Z"
              style="fill:#b4e7f0"/>
        <path d="M298.66667,106.66667c-19.54167,0-30.10417-10.59375-36.41667-16.92709-4.41667-4.40625-4.58333-4.40625-6.25-4.40625V64c10.66667,0,15.85417,5.17708,21.33333,10.66667,5.22917,5.25,10.64584,10.66666,21.33334,10.66666Z"
              style="fill:#b4e7f0"/>
        <path d="M213.33333,106.66667c-19.54166,0-30.10416-10.59375-36.41666-16.92709-4.41667-4.40625-4.58334-4.40625-6.25-4.40625V64C181.33333,64,186.52083,69.17708,192,74.66667c5.22917,5.25,10.64583,10.66666,21.33333,10.66666Z"
              style="fill:#b4e7f0"/>
        <path d="M128,106.66667c-19.54167,0-30.10417-10.59375-36.41667-16.92709-4.41666-4.40625-4.58333-4.40625-6.25-4.40625V64C96,64,101.1875,69.17708,106.66667,74.66667c5.22916,5.25,10.64583,10.66666,21.33333,10.66666Z"
              style="fill:#b4e7f0"/>
        <path d="M328.83724,161.82943A42.66732,42.66732,0,0,0,256,192a42.66669,42.66669,0,1,0-72.83594,30.17057C191.49479,230.5013,256,298.66667,256,298.66667s64.50521-68.16537,72.83724-76.4961A42.67,42.67,0,0,0,328.83724,161.82943Z"
              style="fill:#fcafc9"/>
        <path d="M328.83333,161.83333a42.68886,42.68886,0,0,0-60.33333,0c-.35807.35808-.60807.79037-.95182,1.15886a43.153,43.153,0,0,0-4.44792,5.444c-.61068.91927-1.01693,1.94271-1.55208,2.90364a42.85987,42.85987,0,0,0-2.36328,4.48959,42.3455,42.3455,0,0,0-1.25912,4.16015c-.36588,1.2474-.85807,2.46485-1.10807,3.73568A43.10771,43.10771,0,0,0,256.01042,192h21.33333A21.32292,21.32292,0,0,1,313.75,176.91667a21.42136,21.42136,0,0,1-.1875,30.35416L241.332,283.17969c8.60807,9.08333,14.668,15.487,14.668,15.487s63.54167-67.14714,72.59115-76.2461l.24218-.2539A42.70777,42.70777,0,0,0,328.83333,161.83333Z"
              style="fill:#fb91b5"/>
        <circle cx="213.33333" cy="192" r="21.33333" style="fill:#fee6ee"/>
        <rect x="234.66667" y="362.66667" width="21.33333" height="64" style="fill:#b4e7f0"/>
        <rect x="256" y="362.66667" width="21.33333" height="42.66667" style="fill:#f3fbfd"/>
        <rect x="170.66667" y="341.33333" width="170.66667" height="21.33333" style="fill:#b4e7f0"/>
        <rect x="42.66667" y="128" width="42.66667" height="85.33333" style="fill:#f3fbfd"/>
    </g>
</svg>