<svg xmlns="http://www.w3.org/2000/svg" viewBox="0 0 512 512"><g data-name="Baby Girl Face"><circle cx="64" cy="298.667" r="42.667" style="fill:#fad47f"/><circle cx="448" cy="298.667" r="42.667" style="fill:#f9c450"/><circle cx="256" cy="426.667" r="64" style="fill:#fde7b8"/><path d="M448 234.667c0-106.04-85.96-192-192-192s-192 85.96-192 192a191.376 191.376 0 0 0 10.292 61.63A106.114 106.114 0 0 0 170.667 448h170.666a106.114 106.114 0 0 0 96.375-151.703A191.376 191.376 0 0 0 448 234.667z" style="fill:#fde7b8"/><path style="fill:#fef3dc" d="M192 128h128v64H192z"/><path style="fill:#fad47f" d="M170.667 362.667h42.667V448h-42.667zM298.667 362.667h42.667V448h-42.667z"/><path style="fill:#f9c450" d="M298.667 362.667h42.667v42.667h-42.667z"/><path d="M320 53.826V192h64v42.667h-64V320h21.333a42.667 42.667 0 1 1 0 85.333H256V448h85.333a106.114 106.114 0 0 0 96.375-151.703A191.376 191.376 0 0 0 448 234.667c0-83.563-53.478-154.457-128-180.841z" style="fill:#fad47f"/><path style="fill:#f9c450" d="M320 234.667h64v42.667h-64z"/><circle cx="192" cy="256" r="21.333" style="fill:#38395e"/><circle cx="320" cy="256" r="21.333" style="fill:#38395e"/><path d="M256 426.667a64.07 64.07 0 0 1-64-64h21.333a42.667 42.667 0 0 0 85.334 0H320a64.07 64.07 0 0 1-64 64z" style="fill:#fa7ca7"/><path style="fill:#fad47f" d="M234.667 320h42.667v21.333h-42.667zM128 277.333h64V320h-64z"/><path transform="rotate(-45 373.333 53.333)" style="fill:#38395e" d="M343.163 42.668h60.34v21.331h-60.34z"/><path d="M451.125 103.542a49.718 49.718 0 0 0-70.25 0l-15.083-15.084a71.081 71.081 0 0 1 100.416 0z" style="fill:#38395e"/><path style="fill:#f9c450" d="M298.667 106.667h42.667V128h-42.667z"/><path d="M362.667 192a42.375 42.375 0 0 0 30.166-12.5l33.42-33.42a191.365 191.365 0 0 0-11.345-18.82l-37.158 37.157c-8.063 8.062-22.104 8.062-30.167 0a21.188 21.188 0 0 1-6.25-15.084V74.667H320v74.666A42.678 42.678 0 0 0 362.667 192z" style="fill:#f9c450"/><path d="M341.333 85.333v64a21.333 21.333 0 0 0 6.249 15.085 21.333 21.333 0 0 0 30.17 0l42.666-42.666a21.333 21.333 0 0 0 0-30.17 21.333 21.333 0 0 0-15.085-6.249z" style="fill:#f73478"/><path d="M362.667 106.667v-64a21.333 21.333 0 0 0-6.249-15.085 21.333 21.333 0 0 0-30.17 0l-42.666 42.666a21.333 21.333 0 0 0 0 30.17 21.333 21.333 0 0 0 15.085 6.249z" style="fill:#f73478"/><path transform="rotate(-45 336 80)" style="fill:#e41a67" d="M325.334 57.373h21.331v45.255h-21.331z"/><path d="M352 149.333V128a32.035 32.035 0 0 0 32-32h21.333A53.396 53.396 0 0 1 352 149.333z" style="fill:#e41a67"/><circle cx="352" cy="96" r="32" style="fill:#fa7ca7"/><path d="M352 127.98a31.883 31.883 0 0 1-22.625-9.355l15.083-15.083a10.666 10.666 0 0 0 15.084-15.084l15.083-15.083A31.98 31.98 0 0 1 352 127.979z" style="fill:#f9578f"/><circle cx="352" cy="74.667" r="10.667" style="fill:#fcafc9"/></g></svg>