<?xml version="1.0"?>
<svg width="64" height="64" xmlns="http://www.w3.org/2000/svg" xmlns:svg="http://www.w3.org/2000/svg" enable-background="new 0 0 64 64" version="1.1" xml:space="preserve">
 <g class="layer">
  <title>Layer 1</title>
  <g id="water-drop" transform="matrix(1 0 0 1 0 0) translate(14.02 12.0025) scale(0.721604 0.703676) translate(-14.02 -12.0025) translate(7 13) matrix(0.332778 0 0 0.390601 5.35112 0.0015235)">
   <path d="m32,55.34c-8.38,0 -15.19,-6.52 -15.19,-14.53c0,-0.44 -0.35,-0.8 -0.8,-0.8c-0.44,0 -0.8,0.36 -0.8,0.8c0,8.89 7.53,16.13 16.79,16.13c0.44,0 0.8,-0.36 0.8,-0.8c0,-0.45 -0.36,-0.8 -0.8,-0.8zm0,0c-8.38,0 -15.19,-6.52 -15.19,-14.53c0,-0.44 -0.35,-0.8 -0.8,-0.8c-0.44,0 -0.8,0.36 -0.8,0.8c0,8.89 7.53,16.13 16.79,16.13c0.44,0 0.8,-0.36 0.8,-0.8c0,-0.45 -0.36,-0.8 -0.8,-0.8zm1.09,-54.91c-0.62,-0.57 -1.57,-0.57 -2.18,0c-0.94,0.87 -22.9,21.5 -22.89,40.51c0,12.72 10.75,23.06 23.98,23.06s23.98,-10.34 23.98,-23.06c0.01,-19.01 -21.96,-39.64 -22.89,-40.51zm-1.09,60.37c-11.46,0 -20.79,-8.91 -20.79,-19.86c0,-15.31 16.37,-32.69 20.79,-37.11c4.42,4.41 20.79,21.78 20.78,37.11c0,10.96 -9.32,19.86 -20.78,19.86zm0,-5.46c-8.38,0 -15.19,-6.52 -15.19,-14.53c0,-0.44 -0.35,-0.8 -0.8,-0.8c-0.44,0 -0.8,0.36 -0.8,0.8c0,8.89 7.53,16.13 16.79,16.13c0.44,0 0.8,-0.36 0.8,-0.8c0,-0.45 -0.36,-0.8 -0.8,-0.8z" fill="#0A5CA4" id="svg_1"/>
   <path d="m32,3.83c-4.42,4.42 -20.79,21.8 -20.79,37.11c0,10.95 9.33,19.86 20.79,19.86s20.78,-8.91 20.78,-19.86c0.01,-15.33 -16.36,-32.7 -20.78,-37.11zm0,53.11c-9.26,0 -16.79,-7.24 -16.79,-16.13c0,-0.44 0.36,-0.8 0.8,-0.8c0.44,0 0.8,0.36 0.8,0.8c0,8.01 6.81,14.53 15.19,14.53c0.44,0 0.8,0.36 0.8,0.8c0,0.44 -0.36,0.8 -0.8,0.8z" fill="#D0E7F2" id="svg_2"/>
  </g>
  <g id="Layer_1"/>
  <g id="svg_3" transform="matrix(0.221605 0 0 0.274857 37.4087 32.2055)">
   <path d="m32,55.34c-8.38,0 -15.19,-6.52 -15.19,-14.53c0,-0.44 -0.35,-0.8 -0.8,-0.8c-0.44,0 -0.8,0.36 -0.8,0.8c0,8.89 7.53,16.13 16.79,16.13c0.44,0 0.8,-0.36 0.8,-0.8c0,-0.45 -0.36,-0.8 -0.8,-0.8zm0,0c-8.38,0 -15.19,-6.52 -15.19,-14.53c0,-0.44 -0.35,-0.8 -0.8,-0.8c-0.44,0 -0.8,0.36 -0.8,0.8c0,8.89 7.53,16.13 16.79,16.13c0.44,0 0.8,-0.36 0.8,-0.8c0,-0.45 -0.36,-0.8 -0.8,-0.8zm1.09,-54.91c-0.62,-0.57 -1.57,-0.57 -2.18,0c-0.94,0.87 -22.9,21.5 -22.89,40.51c0,12.72 10.75,23.06 23.98,23.06s23.98,-10.34 23.98,-23.06c0.01,-19.01 -21.96,-39.64 -22.89,-40.51zm-1.09,60.37c-11.46,0 -20.79,-8.91 -20.79,-19.86c0,-15.31 16.37,-32.69 20.79,-37.11c4.42,4.41 20.79,21.78 20.78,37.11c0,10.96 -9.32,19.86 -20.78,19.86zm0,-5.46c-8.38,0 -15.19,-6.52 -15.19,-14.53c0,-0.44 -0.35,-0.8 -0.8,-0.8c-0.44,0 -0.8,0.36 -0.8,0.8c0,8.89 7.53,16.13 16.79,16.13c0.44,0 0.8,-0.36 0.8,-0.8c0,-0.45 -0.36,-0.8 -0.8,-0.8z" fill="#0A5CA4" id="svg_4"/>
   <path d="m32,3.83c-4.42,4.42 -20.79,21.8 -20.79,37.11c0,10.95 9.33,19.86 20.79,19.86s20.78,-8.91 20.78,-19.86c0.01,-15.33 -16.36,-32.7 -20.78,-37.11zm0,53.11c-9.26,0 -16.79,-7.24 -16.79,-16.13c0,-0.44 0.36,-0.8 0.8,-0.8c0.44,0 0.8,0.36 0.8,0.8c0,8.01 6.81,14.53 15.19,14.53c0.44,0 0.8,0.36 0.8,0.8c0,0.44 -0.36,0.8 -0.8,0.8z" fill="#D0E7F2" id="svg_5"/>
  </g>
  <g id="svg_6" transform="translate(-1 0) translate(0 -1) translate(0 -1) translate(23.181 33.2012) matrix(0.204057 0 0 0.190675 -0.715719 0.693248)">
   <path d="m32,55.34c-8.38,0 -15.19,-6.52 -15.19,-14.53c0,-0.44 -0.35,-0.8 -0.8,-0.8c-0.44,0 -0.8,0.36 -0.8,0.8c0,8.89 7.53,16.13 16.79,16.13c0.44,0 0.8,-0.36 0.8,-0.8c0,-0.45 -0.36,-0.8 -0.8,-0.8zm0,0c-8.38,0 -15.19,-6.52 -15.19,-14.53c0,-0.44 -0.35,-0.8 -0.8,-0.8c-0.44,0 -0.8,0.36 -0.8,0.8c0,8.89 7.53,16.13 16.79,16.13c0.44,0 0.8,-0.36 0.8,-0.8c0,-0.45 -0.36,-0.8 -0.8,-0.8zm1.09,-54.91c-0.62,-0.57 -1.57,-0.57 -2.18,0c-0.94,0.87 -22.9,21.5 -22.89,40.51c0,12.72 10.75,23.06 23.98,23.06s23.98,-10.34 23.98,-23.06c0.01,-19.01 -21.96,-39.64 -22.89,-40.51zm-1.09,60.37c-11.46,0 -20.79,-8.91 -20.79,-19.86c0,-15.31 16.37,-32.69 20.79,-37.11c4.42,4.41 20.79,21.78 20.78,37.11c0,10.96 -9.32,19.86 -20.78,19.86zm0,-5.46c-8.38,0 -15.19,-6.52 -15.19,-14.53c0,-0.44 -0.35,-0.8 -0.8,-0.8c-0.44,0 -0.8,0.36 -0.8,0.8c0,8.89 7.53,16.13 16.79,16.13c0.44,0 0.8,-0.36 0.8,-0.8c0,-0.45 -0.36,-0.8 -0.8,-0.8z" fill="#0A5CA4" id="svg_7"/>
   <path d="m32,3.83c-4.42,4.42 -20.79,21.8 -20.79,37.11c0,10.95 9.33,19.86 20.79,19.86s20.78,-8.91 20.78,-19.86c0.01,-15.33 -16.36,-32.7 -20.78,-37.11zm0,53.11c-9.26,0 -16.79,-7.24 -16.79,-16.13c0,-0.44 0.36,-0.8 0.8,-0.8c0.44,0 0.8,0.36 0.8,0.8c0,8.01 6.81,14.53 15.19,14.53c0.44,0 0.8,0.36 0.8,0.8c0,0.44 -0.36,0.8 -0.8,0.8z" fill="#D0E7F2" id="svg_8"/>
  </g>
  <g id="svg_9" transform="translate(32.7058 28.1487) scale(1.39586 1.22548) translate(-32.7058 -28.1487) translate(0 1) matrix(0.116314 0 0 0.176645 32.773 14.8434)">
   <path d="m32,55.34c-8.38,0 -15.19,-6.52 -15.19,-14.53c0,-0.44 -0.35,-0.8 -0.8,-0.8c-0.44,0 -0.8,0.36 -0.8,0.8c0,8.89 7.53,16.13 16.79,16.13c0.44,0 0.8,-0.36 0.8,-0.8c0,-0.45 -0.36,-0.8 -0.8,-0.8zm0,0c-8.38,0 -15.19,-6.52 -15.19,-14.53c0,-0.44 -0.35,-0.8 -0.8,-0.8c-0.44,0 -0.8,0.36 -0.8,0.8c0,8.89 7.53,16.13 16.79,16.13c0.44,0 0.8,-0.36 0.8,-0.8c0,-0.45 -0.36,-0.8 -0.8,-0.8zm1.09,-54.91c-0.62,-0.57 -1.57,-0.57 -2.18,0c-0.94,0.87 -22.9,21.5 -22.89,40.51c0,12.72 10.75,23.06 23.98,23.06s23.98,-10.34 23.98,-23.06c0.01,-19.01 -21.96,-39.64 -22.89,-40.51zm-1.09,60.37c-11.46,0 -20.79,-8.91 -20.79,-19.86c0,-15.31 16.37,-32.69 20.79,-37.11c4.42,4.41 20.79,21.78 20.78,37.11c0,10.96 -9.32,19.86 -20.78,19.86zm0,-5.46c-8.38,0 -15.19,-6.52 -15.19,-14.53c0,-0.44 -0.35,-0.8 -0.8,-0.8c-0.44,0 -0.8,0.36 -0.8,0.8c0,8.89 7.53,16.13 16.79,16.13c0.44,0 0.8,-0.36 0.8,-0.8c0,-0.45 -0.36,-0.8 -0.8,-0.8z" fill="#0A5CA4" id="svg_10"/>
   <path d="m32,3.83c-4.42,4.42 -20.79,21.8 -20.79,37.11c0,10.95 9.33,19.86 20.79,19.86s20.78,-8.91 20.78,-19.86c0.01,-15.33 -16.36,-32.7 -20.78,-37.11zm0,53.11c-9.26,0 -16.79,-7.24 -16.79,-16.13c0,-0.44 0.36,-0.8 0.8,-0.8c0.44,0 0.8,0.36 0.8,0.8c0,8.01 6.81,14.53 15.19,14.53c0.44,0 0.8,0.36 0.8,0.8c0,0.44 -0.36,0.8 -0.8,0.8z" fill="#D0E7F2" id="svg_11"/>
  </g>
 </g>
</svg>