<svg xmlns="http://www.w3.org/2000/svg" width="128" height="128" viewBox="0 0 128 128">
  <title>POOP </title>
  <g>
    <path d="M103.81,111.55a9.97,9.97,0,0,1-9.95,9.95H34.14a9.95,9.95,0,0,1,0-19.9h5.32a9.955,9.955,0,0,1,0-19.91h5.33a9.95,9.95,0,1,1,0-19.9h5.45a19.475,19.475,0,0,1,4.55-3.5C61.02,54.68,68.51,53.26,71.88,43c9.94,3.16,12.65,11.73,11.94,18.81a9.943,9.943,0,0,1,6.97,16.38c-.17.2-.35.4-.54.59a9.923,9.923,0,0,1-7.04,2.91h5.33a9.957,9.957,0,0,1,9.95,9.95A9.835,9.835,0,0,1,96.1,98.1a7.126,7.126,0,0,1-.53.58,9.925,9.925,0,0,1-7.03,2.92h5.32A9.95,9.95,0,0,1,103.81,111.55Z" fill="#663325"/>
    <g>
      <path d="M96.555,100.163c.084-.079.167-.16.249-.242a11.6,11.6,0,0,0,3.436-8.281,11.786,11.786,0,0,0-.166-1.972,1.75,1.75,0,1,0-3.45.59,8.253,8.253,0,0,1,.116,1.382,8.218,8.218,0,0,1-8.2,8.21H71a1.75,1.75,0,0,0,0,3.5H93.86a8.209,8.209,0,0,1,8.2,8.2,8.22,8.22,0,0,1-8.2,8.2H34.14a8.21,8.21,0,0,1-8.2-8.2,8.2,8.2,0,0,1,8.2-8.2H48.52a1.75,1.75,0,1,0,0-3.5H39.46a8.214,8.214,0,0,1-8.2-8.21,8.22,8.22,0,0,1,8.2-8.2H56.167a1.75,1.75,0,0,0,0-3.5H44.79a8.214,8.214,0,0,1-8.21-8.2,8.2,8.2,0,0,1,8.21-8.2H71.917a1.75,1.75,0,0,0,0-3.5H55.272c.8-.481,1.612-.912,2.412-1.317A1.75,1.75,0,0,0,56.1,55.6a25.81,25.81,0,0,0-6.6,4.44H44.79a11.693,11.693,0,0,0-8.028,20.21,11.744,11.744,0,0,0-9,11.39,11.684,11.684,0,0,0,3.682,8.521,11.7,11.7,0,0,0,2.7,23.089H93.86a11.7,11.7,0,0,0,2.7-23.087Z" fill="#072130"/>
      <path d="M67.618,50.559a1.75,1.75,0,0,0,2.455-.309,20.872,20.872,0,0,0,2.85-5.008c9.592,3.981,9.45,13.464,9.156,16.393a1.75,1.75,0,0,0,1.637,1.922,8.2,8.2,0,0,1,7.7,8.183,8.2,8.2,0,0,1-8.21,8.2H75.875a1.75,1.75,0,0,0,0,3.5H88.54a8.115,8.115,0,0,1,4.98,1.688,1.75,1.75,0,1,0,2.129-2.778,11.6,11.6,0,0,0-4.4-2.1c.08-.076.159-.153.238-.231A11.6,11.6,0,0,0,94.92,71.74,11.713,11.713,0,0,0,85.667,60.3c.19-7.361-3.161-15.757-13.257-18.967a1.752,1.752,0,0,0-2.193,1.123A18.4,18.4,0,0,1,67.309,48.1,1.75,1.75,0,0,0,67.618,50.559Z" fill="#072130"/>
      <path d="M62.329,56.167a1.75,1.75,0,0,0,.854-.224c.9-.506,1.7-1,2.438-1.514a1.75,1.75,0,0,0-2-2.872c-.641.446-1.344.882-2.147,1.332a1.751,1.751,0,0,0,.856,3.278Z" fill="#072130"/>
      <path d="M84.25,117.25a1.75,1.75,0,0,0,0-3.5h-9a1.75,1.75,0,0,0,0,3.5Z" fill="#072130"/>
      <path d="M39.739,30a1.75,1.75,0,1,0,3.5,0c0-.533.158-.719.583-1.218a5,5,0,0,0,0-6.971c-.425-.5-.583-.686-.583-1.218s.158-.718.583-1.217a4.989,4.989,0,0,0,0-6.967c-.424-.5-.582-.683-.582-1.213s.158-.716.582-1.214A4.958,4.958,0,0,0,45.239,6.5a1.75,1.75,0,0,0-3.5,0c0,.529-.159.715-.582,1.213a4.987,4.987,0,0,0,0,6.966c.423.5.582.683.582,1.213s-.159.718-.583,1.216a4.994,4.994,0,0,0,0,6.97c.424.5.583.686.583,1.218s-.159.719-.583,1.218A4.972,4.972,0,0,0,39.739,30Z" fill="#072130"/>
      <path d="M54.08,30a1.75,1.75,0,0,0,3.5,0c0-.533.158-.719.583-1.218a5,5,0,0,0,0-6.971c-.425-.5-.583-.686-.583-1.218s.158-.718.583-1.217a4.989,4.989,0,0,0,0-6.967c-.424-.5-.582-.683-.582-1.213s.158-.716.582-1.214A4.958,4.958,0,0,0,59.58,6.5a1.75,1.75,0,0,0-3.5,0c0,.529-.159.715-.582,1.213a4.987,4.987,0,0,0,0,6.966c.423.5.582.683.582,1.213s-.159.718-.583,1.216a4.994,4.994,0,0,0,0,6.97c.424.5.583.686.583,1.218s-.159.719-.583,1.218A4.972,4.972,0,0,0,54.08,30Z" fill="#072130"/>
      <path d="M68.42,30a1.75,1.75,0,0,0,3.5,0c0-.533.159-.719.583-1.218a5,5,0,0,0,0-6.971c-.424-.5-.583-.686-.583-1.218s.159-.718.583-1.217a4.989,4.989,0,0,0,0-6.967c-.423-.5-.582-.683-.582-1.213s.159-.716.582-1.214A4.958,4.958,0,0,0,73.92,6.5a1.75,1.75,0,0,0-3.5,0c0,.529-.158.715-.582,1.213a4.987,4.987,0,0,0,0,6.966c.424.5.582.683.582,1.213s-.158.718-.582,1.216a4.993,4.993,0,0,0,0,6.97c.425.5.583.686.583,1.218s-.158.719-.583,1.218A4.976,4.976,0,0,0,68.42,30Z" fill="#072130"/>
      <path d="M82.761,30a1.75,1.75,0,0,0,3.5,0c0-.533.158-.719.583-1.218a5,5,0,0,0,0-6.971c-.425-.5-.583-.686-.583-1.218s.158-.718.583-1.217a4.989,4.989,0,0,0,0-6.967c-.424-.5-.582-.683-.582-1.213s.158-.716.582-1.214A4.958,4.958,0,0,0,88.261,6.5a1.75,1.75,0,0,0-3.5,0c0,.529-.159.715-.582,1.213a4.987,4.987,0,0,0,0,6.966c.423.5.582.683.582,1.213s-.159.718-.583,1.216a4.994,4.994,0,0,0,0,6.97c.424.5.583.686.583,1.218s-.159.719-.583,1.218A4.972,4.972,0,0,0,82.761,30Z" fill="#072130"/>
    </g>
  </g>
</svg>
